{
  "meta": {
    "title": "When I'm Gone (easy)",
    "bpm": 100
  },
  "events": [
    {
      "t": 0.0,
      "note": 62,
      "dur": 1.0,
      "vel": 100
    },
    {
      "t": 1.0,
      "note": 62,
      "dur": 0.25,
      "vel": 100
    },
    {
      "t": 1.75,
      "note": 93,
      "dur": 0.25,
      "vel": 100
    },
    {
      "t": 2.0,
      "note": 69,
      "dur": 0.25,
      "vel": 100
    },
    {
      "t": 3.25,
      "note": 38,
      "dur": 2.75,
      "vel": 100
    },
    {
      "t": 6.0,
      "note": 61,
      "dur": 1.5,
      "vel": 100
    },
    {
      "t": 7.5,
      "note": 93,
      "dur": 1.25,
      "vel": 100
    },
    {
      "t": 9.0,
      "note": 93,
      "dur": 2.75,
      "vel": 100
    },
    {
      "t": 11.75,
      "note": 63,
      "dur": 1.5,
      "vel": 100
    },
    {
      "t": 13.25,
      "note": 42,
      "dur": 1.25,
      "vel": 100
    },
    {
      "t": 14.5,
      "note": 93,
      "dur": 2.75,
      "vel": 100
    },
    {
      "t": 17.25,
      "note": 62,
      "dur": 1.0,
      "vel": 100
    },
    {
      "t": 18.25,
      "note": 93,
      "dur": 0.25,
      "vel": 100
    },
    {
      "t": 18.5,
      "note": 45,
      "dur": 0.25,
      "vel": 100
    },
    {
      "t": 18.75,
      "note": 93,
      "dur": 0.5,
      "vel": 100
    },
    {
      "t": 19.25,
      "note": 93,
      "dur": 0.25,
      "vel": 100
    },
    {
      "t": 19.5,
      "note": 93,
      "dur": 3.5,
      "vel": 100
    },
    {
      "t": 22.75,
      "note": 61,
      "dur": 0.75,
      "vel": 100
    },
    {
      "t": 23.75,
      "note": 38,
      "dur": 0.25,
      "vel": 100
    },
    {
      "t": 24.0,
      "note": 38,
      "dur": 0.25,
      "vel": 100
    },
    {
      "t": 24.5,
      "note": 54,
      "dur": 0.25,
      "vel": 100
    },
    {
      "t": 24.75,
      "note": 69,
      "dur": 0.25,
      "vel": 100
    },
    {
      "t": 25.75,
      "note": 38,
      "dur": 1.0,
      "vel": 100
    },
    {
      "t": 26.75,
      "note": 38,
      "dur": 0.25,
      "vel": 100
    },
    {
      "t": 27.0,
      "note": 93,
      "dur": 0.25,
      "vel": 100
    },
    {
      "t": 28.5,
      "note": 49,
      "dur": 1.0,
      "vel": 100
    },
    {
      "t": 29.5,
      "note": 49,
      "dur": 0.25,
      "vel": 100
    },
    {
      "t": 30.0,
      "note": 93,
      "dur": 0.25,
      "vel": 100
    },
    {
      "t": 31.25,
      "note": 93,
      "dur": 0.25,
      "vel": 100
    },
    {
      "t": 34.0,
      "note": 62,
      "dur": 1.5,
      "vel": 100
    },
    {
      "t": 35.5,
      "note": 93,
      "dur": 0.25,
      "vel": 100
    },
    {
      "t": 36.5,
      "note": 45,
      "dur": 0.25,
      "vel": 100
    },
    {
      "t": 36.75,
      "note": 93,
      "dur": 0.25,
      "vel": 100
    },
    {
      "t": 37.0,
      "note": 74,
      "dur": 0.25,
      "vel": 100
    },
    {
      "t": 38.25,
      "note": 93,
      "dur": 0.25,
      "vel": 100
    },
    {
      "t": 39.5,
      "note": 45,
      "dur": 0.75,
      "vel": 100
    },
    {
      "t": 40.25,
      "note": 74,
      "dur": 0.25,
      "vel": 100
    },
    {
      "t": 40.5,
      "note": 93,
      "dur": 0.25,
      "vel": 100
    },
    {
      "t": 41.0,
      "note": 45,
      "dur": 0.25,
      "vel": 100
    },
    {
      "t": 41.25,
      "note": 93,
      "dur": 0.25,
      "vel": 100
    },
    {
      "t": 41.5,
      "note": 93,
      "dur": 0.25,
      "vel": 100
    },
    {
      "t": 42.0,
      "note": 93,
      "dur": 0.25,
      "vel": 100
    },
    {
      "t": 43.0,
      "note": 93,
      "dur": 4.75,
      "vel": 100
    },
    {
      "t": 47.75,
      "note": 54,
      "dur": 1.25,
      "vel": 100
    },
    {
      "t": 49.0,
      "note": 93,
      "dur": 0.25,
      "vel": 100
    },
    {
      "t": 50.5,
      "note": 93,
      "dur": 0.25,
      "vel": 100
    },
    {
      "t": 51.75,
      "note": 93,
      "dur": 1.0,
      "vel": 100
    },
    {
      "t": 52.75,
      "note": 93,
      "dur": 0.25,
      "vel": 100
    },
    {
      "t": 53.0,
      "note": 54,
      "dur": 0.25,
      "vel": 100
    },
    {
      "t": 54.5,
      "note": 93,
      "dur": 2.0,
      "vel": 100
    },
    {
      "t": 56.5,
      "note": 47,
      "dur": 0.75,
      "vel": 100
    },
    {
      "t": 57.25,
      "note": 93,
      "dur": 0.25,
      "vel": 100
    },
    {
      "t": 57.5,
      "note": 93,
      "dur": 0.25,
      "vel": 100
    },
    {
      "t": 57.75,
      "note": 49,
      "dur": 0.25,
      "vel": 100
    },
    {
      "t": 58.0,
      "note": 93,
      "dur": 0.25,
      "vel": 100
    },
    {
      "t": 58.5,
      "note": 93,
      "dur": 0.25,
      "vel": 100
    },
    {
      "t": 59.25,
      "note": 47,
      "dur": 0.25,
      "vel": 100
    },
    {
      "t": 59.5,
      "note": 47,
      "dur": 0.25,
      "vel": 100
    },
    {
      "t": 59.75,
      "note": 93,
      "dur": 0.25,
      "vel": 100
    },
    {
      "t": 60.5,
      "note": 93,
      "dur": 0.25,
      "vel": 100
    },
    {
      "t": 60.75,
      "note": 93,
      "dur": 0.25,
      "vel": 100
    },
    {
      "t": 61.25,
      "note": 93,
      "dur": 0.25,
      "vel": 100
    },
    {
      "t": 61.5,
      "note": 33,
      "dur": 0.25,
      "vel": 100
    },
    {
      "t": 61.75,
      "note": 45,
      "dur": 0.25,
      "vel": 100
    },
    {
      "t": 62.5,
      "note": 93,
      "dur": 1.0,
      "vel": 100
    },
    {
      "t": 63.5,
      "note": 93,
      "dur": 0.25,
      "vel": 100
    },
    {
      "t": 63.75,
      "note": 93,
      "dur": 0.25,
      "vel": 100
    },
    {
      "t": 64.75,
      "note": 93,
      "dur": 0.25,
      "vel": 100
    },
    {
      "t": 65.25,
      "note": 93,
      "dur": 0.25,
      "vel": 100
    },
    {
      "t": 65.5,
      "note": 93,
      "dur": 0.25,
      "vel": 100
    },
    {
      "t": 65.75,
      "note": 93,
      "dur": 0.25,
      "vel": 100
    },
    {
      "t": 66.0,
      "note": 93,
      "dur": 0.75,
      "vel": 100
    },
    {
      "t": 66.75,
      "note": 67,
      "dur": 0.5,
      "vel": 100
    },
    {
      "t": 67.25,
      "note": 93,
      "dur": 0.25,
      "vel": 100
    },
    {
      "t": 70.0,
      "note": 93,
      "dur": 0.25,
      "vel": 100
    },
    {
      "t": 70.75,
      "note": 93,
      "dur": 0.25,
      "vel": 100
    },
    {
      "t": 71.0,
      "note": 43,
      "dur": 0.25,
      "vel": 100
    },
    {
      "t": 71.25,
      "note": 43,
      "dur": 0.25,
      "vel": 100
    },
    {
      "t": 71.75,
      "note": 49,
      "dur": 1.0,
      "vel": 100
    },
    {
      "t": 72.75,
      "note": 93,
      "dur": 0.25,
      "vel": 100
    },
    {
      "t": 73.0,
      "note": 93,
      "dur": 0.25,
      "vel": 100
    },
    {
      "t": 74.25,
      "note": 93,
      "dur": 0.25,
      "vel": 100
    },
    {
      "t": 74.5,
      "note": 93,
      "dur": 1.0,
      "vel": 100
    },
    {
      "t": 75.5,
      "note": 93,
      "dur": 0.25,
      "vel": 100
    },
    {
      "t": 78.0,
      "note": 62,
      "dur": 1.0,
      "vel": 100
    },
    {
      "t": 78.75,
      "note": 62,
      "dur": 0.25,
      "vel": 100
    },
    {
      "t": 79.5,
      "note": 54,
      "dur": 0.25,
      "vel": 100
    },
    {
      "t": 80.0,
      "note": 69,
      "dur": 0.25,
      "vel": 100
    },
    {
      "t": 81.0,
      "note": 38,
      "dur": 2.75,
      "vel": 100
    },
    {
      "t": 83.75,
      "note": 61,
      "dur": 1.5,
      "vel": 100
    },
    {
      "t": 85.5,
      "note": 93,
      "dur": 0.25,
      "vel": 100
    },
    {
      "t": 86.75,
      "note": 93,
      "dur": 2.75,
      "vel": 100
    },
    {
      "t": 89.5,
      "note": 62,
      "dur": 1.5,
      "vel": 100
    },
    {
      "t": 91.0,
      "note": 93,
      "dur": 0.25,
      "vel": 100
    },
    {
      "t": 92.5,
      "note": 93,
      "dur": 2.75,
      "vel": 100
    },
    {
      "t": 95.0,
      "note": 62,
      "dur": 1.0,
      "vel": 100
    },
    {
      "t": 96.0,
      "note": 61,
      "dur": 0.25,
      "vel": 100
    },
    {
      "t": 96.25,
      "note": 93,
      "dur": 0.25,
      "vel": 100
    },
    {
      "t": 96.5,
      "note": 45,
      "dur": 0.25,
      "vel": 100
    },
    {
      "t": 97.0,
      "note": 93,
      "dur": 0.25,
      "vel": 100
    },
    {
      "t": 97.25,
      "note": 93,
      "dur": 0.25,
      "vel": 100
    },
    {
      "t": 100.75,
      "note": 61,
      "dur": 0.75,
      "vel": 100
    },
    {
      "t": 101.5,
      "note": 38,
      "dur": 0.75,
      "vel": 100
    },
    {
      "t": 102.25,
      "note": 93,
      "dur": 0.25,
      "vel": 100
    },
    {
      "t": 102.5,
      "note": 69,
      "dur": 0.25,
      "vel": 100
    },
    {
      "t": 103.5,
      "note": 38,
      "dur": 1.0,
      "vel": 100
    },
    {
      "t": 104.5,
      "note": 38,
      "dur": 0.25,
      "vel": 100
    },
    {
      "t": 105.0,
      "note": 38,
      "dur": 1.25,
      "vel": 100
    },
    {
      "t": 106.25,
      "note": 49,
      "dur": 1.0,
      "vel": 100
    },
    {
      "t": 107.25,
      "note": 49,
      "dur": 0.25,
      "vel": 100
    },
    {
      "t": 107.75,
      "note": 93,
      "dur": 0.25,
      "vel": 100
    },
    {
      "t": 109.0,
      "note": 93,
      "dur": 0.25,
      "vel": 100
    },
    {
      "t": 112.0,
      "note": 62,
      "dur": 1.5,
      "vel": 100
    },
    {
      "t": 113.25,
      "note": 93,
      "dur": 0.25,
      "vel": 100
    },
    {
      "t": 114.25,
      "note": 45,
      "dur": 0.25,
      "vel": 100
    },
    {
      "t": 114.75,
      "note": 93,
      "dur": 0.25,
      "vel": 100
    },
    {
      "t": 115.0,
      "note": 62,
      "dur": 0.25,
      "vel": 100
    },
    {
      "t": 116.0,
      "note": 93,
      "dur": 0.25,
      "vel": 100
    },
    {
      "t": 117.5,
      "note": 45,
      "dur": 0.75,
      "vel": 100
    },
    {
      "t": 118.0,
      "note": 74,
      "dur": 0.25,
      "vel": 100
    },
    {
      "t": 118.5,
      "note": 45,
      "dur": 0.25,
      "vel": 100
    },
    {
      "t": 118.75,
      "note": 45,
      "dur": 0.25,
      "vel": 100
    },
    {
      "t": 119.0,
      "note": 93,
      "dur": 0.25,
      "vel": 100
    },
    {
      "t": 119.5,
      "note": 93,
      "dur": 0.25,
      "vel": 100
    },
    {
      "t": 119.75,
      "note": 93,
      "dur": 0.25,
      "vel": 100
    },
    {
      "t": 120.75,
      "note": 93,
      "dur": 4.75,
      "vel": 100
    },
    {
      "t": 125.5,
      "note": 54,
      "dur": 1.25,
      "vel": 100
    },
    {
      "t": 126.75,
      "note": 93,
      "dur": 0.25,
      "vel": 100
    },
    {
      "t": 127.75,
      "note": 38,
      "dur": 0.25,
      "vel": 100
    },
    {
      "t": 128.25,
      "note": 93,
      "dur": 0.25,
      "vel": 100
    },
    {
      "t": 129.5,
      "note": 93,
      "dur": 0.25,
      "vel": 100
    },
    {
      "t": 130.5,
      "note": 93,
      "dur": 0.25,
      "vel": 100
    },
    {
      "t": 131.0,
      "note": 54,
      "dur": 0.25,
      "vel": 100
    },
    {
      "t": 132.25,
      "note": 93,
      "dur": 0.25,
      "vel": 100
    },
    {
      "t": 134.5,
      "note": 93,
      "dur": 0.25,
      "vel": 100
    },
    {
      "t": 135.0,
      "note": 93,
      "dur": 0.25,
      "vel": 100
    },
    {
      "t": 135.25,
      "note": 93,
      "dur": 0.25,
      "vel": 100
    },
    {
      "t": 135.5,
      "note": 47,
      "dur": 0.25,
      "vel": 100
    },
    {
      "t": 136.0,
      "note": 93,
      "dur": 0.25,
      "vel": 100
    },
    {
      "t": 136.25,
      "note": 93,
      "dur": 0.25,
      "vel": 100
    },
    {
      "t": 136.5,
      "note": 45,
      "dur": 0.25,
      "vel": 100
    },
    {
      "t": 137.0,
      "note": 93,
      "dur": 0.25,
      "vel": 100
    },
    {
      "t": 137.5,
      "note": 93,
      "dur": 0.25,
      "vel": 100
    },
    {
      "t": 138.25,
      "note": 93,
      "dur": 0.25,
      "vel": 100
    },
    {
      "t": 138.5,
      "note": 93,
      "dur": 0.25,
      "vel": 100
    },
    {
      "t": 139.0,
      "note": 93,
      "dur": 0.25,
      "vel": 100
    },
    {
      "t": 139.25,
      "note": 33,
      "dur": 0.25,
      "vel": 100
    },
    {
      "t": 139.5,
      "note": 45,
      "dur": 0.25,
      "vel": 100
    },
    {
      "t": 140.0,
      "note": 45,
      "dur": 0.25,
      "vel": 100
    },
    {
      "t": 140.25,
      "note": 93,
      "dur": 0.25,
      "vel": 100
    },
    {
      "t": 141.25,
      "note": 93,
      "dur": 0.25,
      "vel": 100
    },
    {
      "t": 141.5,
      "note": 93,
      "dur": 0.25,
      "vel": 100
    },
    {
      "t": 142.5,
      "note": 93,
      "dur": 0.25,
      "vel": 100
    },
    {
      "t": 143.0,
      "note": 93,
      "dur": 0.25,
      "vel": 100
    },
    {
      "t": 143.25,
      "note": 93,
      "dur": 0.25,
      "vel": 100
    },
    {
      "t": 143.75,
      "note": 93,
      "dur": 0.25,
      "vel": 100
    },
    {
      "t": 144.0,
      "note": 93,
      "dur": 0.5,
      "vel": 100
    },
    {
      "t": 144.5,
      "note": 93,
      "dur": 0.25,
      "vel": 100
    },
    {
      "t": 145.0,
      "note": 93,
      "dur": 0.25,
      "vel": 100
    },
    {
      "t": 147.75,
      "note": 93,
      "dur": 0.25,
      "vel": 100
    },
    {
      "t": 148.5,
      "note": 93,
      "dur": 0.25,
      "vel": 100
    },
    {
      "t": 148.75,
      "note": 43,
      "dur": 0.25,
      "vel": 100
    },
    {
      "t": 149.25,
      "note": 43,
      "dur": 0.25,
      "vel": 100
    },
    {
      "t": 149.5,
      "note": 93,
      "dur": 0.25,
      "vel": 100
    },
    {
      "t": 150.75,
      "note": 93,
      "dur": 0.25,
      "vel": 100
    },
    {
      "t": 151.0,
      "note": 93,
      "dur": 0.25,
      "vel": 100
    },
    {
      "t": 152.0,
      "note": 93,
      "dur": 0.25,
      "vel": 100
    },
    {
      "t": 152.25,
      "note": 93,
      "dur": 1.0,
      "vel": 100
    },
    {
      "t": 153.5,
      "note": 93,
      "dur": 0.25,
      "vel": 100
    },
    {
      "t": 157.0,
      "note": 93,
      "dur": 0.25,
      "vel": 100
    },
    {
      "t": 157.25,
      "note": 74,
      "dur": 0.25,
      "vel": 100
    },
    {
      "t": 158.0,
      "note": 38,
      "dur": 0.25,
      "vel": 100
    },
    {
      "t": 158.25,
      "note": 93,
      "dur": 0.25,
      "vel": 100
    },
    {
      "t": 159.25,
      "note": 93,
      "dur": 0.25,
      "vel": 100
    },
    {
      "t": 159.75,
      "note": 54,
      "dur": 0.25,
      "vel": 100
    },
    {
      "t": 160.0,
      "note": 38,
      "dur": 1.0,
      "vel": 100
    },
    {
      "t": 161.0,
      "note": 42,
      "dur": 0.75,
      "vel": 100
    },
    {
      "t": 161.75,
      "note": 82,
      "dur": 0.75,
      "vel": 100
    },
    {
      "t": 162.25,
      "note": 93,
      "dur": 0.25,
      "vel": 100
    },
    {
      "t": 163.75,
      "note": 42,
      "dur": 1.25,
      "vel": 100
    },
    {
      "t": 165.0,
      "note": 42,
      "dur": 0.5,
      "vel": 100
    },
    {
      "t": 165.75,
      "note": 93,
      "dur": 0.25,
      "vel": 100
    },
    {
      "t": 166.0,
      "note": 93,
      "dur": 0.25,
      "vel": 100
    },
    {
      "t": 166.25,
      "note": 83,
      "dur": 0.25,
      "vel": 100
    },
    {
      "t": 166.75,
      "note": 61,
      "dur": 0.25,
      "vel": 100
    },
    {
      "t": 167.0,
      "note": 42,
      "dur": 0.25,
      "vel": 100
    },
    {
      "t": 167.25,
      "note": 93,
      "dur": 0.25,
      "vel": 100
    },
    {
      "t": 167.75,
      "note": 54,
      "dur": 0.25,
      "vel": 100
    },
    {
      "t": 168.0,
      "note": 75,
      "dur": 0.25,
      "vel": 100
    },
    {
      "t": 168.25,
      "note": 55,
      "dur": 0.25,
      "vel": 100
    },
    {
      "t": 168.5,
      "note": 43,
      "dur": 0.25,
      "vel": 100
    },
    {
      "t": 169.0,
      "note": 45,
      "dur": 0.75,
      "vel": 100
    },
    {
      "t": 169.75,
      "note": 93,
      "dur": 0.25,
      "vel": 100
    },
    {
      "t": 170.0,
      "note": 45,
      "dur": 0.25,
      "vel": 100
    },
    {
      "t": 170.25,
      "note": 54,
      "dur": 0.25,
      "vel": 100
    },
    {
      "t": 171.75,
      "note": 61,
      "dur": 0.75,
      "vel": 100
    },
    {
      "t": 172.25,
      "note": 93,
      "dur": 0.25,
      "vel": 100
    },
    {
      "t": 172.5,
      "note": 93,
      "dur": 0.25,
      "vel": 100
    },
    {
      "t": 173.0,
      "note": 93,
      "dur": 0.25,
      "vel": 100
    },
    {
      "t": 177.5,
      "note": 62,
      "dur": 1.75,
      "vel": 100
    },
    {
      "t": 179.0,
      "note": 93,
      "dur": 0.25,
      "vel": 100
    },
    {
      "t": 179.5,
      "note": 69,
      "dur": 0.25,
      "vel": 100
    },
    {
      "t": 180.5,
      "note": 93,
      "dur": 0.25,
      "vel": 100
    },
    {
      "t": 183.25,
      "note": 61,
      "dur": 1.75,
      "vel": 100
    },
    {
      "t": 185.0,
      "note": 93,
      "dur": 0.25,
      "vel": 100
    },
    {
      "t": 186.25,
      "note": 93,
      "dur": 0.25,
      "vel": 100
    },
    {
      "t": 189.0,
      "note": 62,
      "dur": 0.75,
      "vel": 100
    },
    {
      "t": 190.0,
      "note": 93,
      "dur": 0.25,
      "vel": 100
    },
    {
      "t": 190.25,
      "note": 93,
      "dur": 0.25,
      "vel": 100
    },
    {
      "t": 190.75,
      "note": 93,
      "dur": 0.25,
      "vel": 100
    },
    {
      "t": 191.0,
      "note": 45,
      "dur": 0.25,
      "vel": 100
    },
    {
      "t": 191.25,
      "note": 47,
      "dur": 0.25,
      "vel": 100
    },
    {
      "t": 191.5,
      "note": 93,
      "dur": 0.25,
      "vel": 100
    },
    {
      "t": 192.0,
      "note": 93,
      "dur": 0.25,
      "vel": 100
    },
    {
      "t": 192.25,
      "note": 93,
      "dur": 0.25,
      "vel": 100
    },
    {
      "t": 192.75,
      "note": 93,
      "dur": 0.75,
      "vel": 100
    },
    {
      "t": 193.5,
      "note": 93,
      "dur": 0.25,
      "vel": 100
    },
    {
      "t": 194.75,
      "note": 62,
      "dur": 0.75,
      "vel": 100
    },
    {
      "t": 195.75,
      "note": 33,
      "dur": 0.25,
      "vel": 100
    },
    {
      "t": 196.0,
      "note": 93,
      "dur": 6.75,
      "vel": 100
    },
    {
      "t": 202.75,
      "note": 54,
      "dur": 0.25,
      "vel": 100
    },
    {
      "t": 203.25,
      "note": 50,
      "dur": 9.5,
      "vel": 100
    }
  ]
}