{
  "meta": {
    "title": "When I'm Gone (auto)",
    "bpm": 100
  },
  "events": [
    {
      "t": 0.073,
      "note": 62,
      "dur": 0.963,
      "vel": 100
    },
    {
      "t": 1.035,
      "note": 62,
      "dur": 0.02,
      "vel": 100
    },
    {
      "t": 1.055,
      "note": 38,
      "dur": 0.714,
      "vel": 100
    },
    {
      "t": 1.769,
      "note": 93,
      "dur": 0.022,
      "vel": 100
    },
    {
      "t": 1.791,
      "note": 54,
      "dur": 0.329,
      "vel": 100
    },
    {
      "t": 2.12,
      "note": 69,
      "dur": 0.006,
      "vel": 100
    },
    {
      "t": 2.126,
      "note": 57,
      "dur": 0.027,
      "vel": 100
    },
    {
      "t": 2.154,
      "note": 38,
      "dur": 1.016,
      "vel": 100
    },
    {
      "t": 3.169,
      "note": 38,
      "dur": 2.797,
      "vel": 100
    },
    {
      "t": 5.967,
      "note": 61,
      "dur": 1.591,
      "vel": 100
    },
    {
      "t": 7.558,
      "note": 93,
      "dur": 1.341,
      "vel": 100
    },
    {
      "t": 8.899,
      "note": 93,
      "dur": 2.762,
      "vel": 100
    },
    {
      "t": 11.661,
      "note": 63,
      "dur": 1.579,
      "vel": 100
    },
    {
      "t": 13.24,
      "note": 42,
      "dur": 1.333,
      "vel": 100
    },
    {
      "t": 14.573,
      "note": 93,
      "dur": 2.714,
      "vel": 100
    },
    {
      "t": 17.287,
      "note": 62,
      "dur": 0.89,
      "vel": 100
    },
    {
      "t": 18.177,
      "note": 93,
      "dur": 0.023,
      "vel": 100
    },
    {
      "t": 18.2,
      "note": 93,
      "dur": 0.018,
      "vel": 100
    },
    {
      "t": 18.218,
      "note": 33,
      "dur": 0.086,
      "vel": 100
    },
    {
      "t": 18.304,
      "note": 93,
      "dur": 0.034,
      "vel": 100
    },
    {
      "t": 18.338,
      "note": 45,
      "dur": 0.067,
      "vel": 100
    },
    {
      "t": 18.405,
      "note": 45,
      "dur": 0.074,
      "vel": 100
    },
    {
      "t": 18.478,
      "note": 45,
      "dur": 0.264,
      "vel": 100
    },
    {
      "t": 18.742,
      "note": 93,
      "dur": 0.398,
      "vel": 100
    },
    {
      "t": 19.14,
      "note": 93,
      "dur": 0.313,
      "vel": 100
    },
    {
      "t": 19.452,
      "note": 93,
      "dur": 3.417,
      "vel": 100
    },
    {
      "t": 22.869,
      "note": 61,
      "dur": 0.804,
      "vel": 100
    },
    {
      "t": 23.673,
      "note": 38,
      "dur": 0.364,
      "vel": 100
    },
    {
      "t": 24.037,
      "note": 38,
      "dur": 0.352,
      "vel": 100
    },
    {
      "t": 24.39,
      "note": 54,
      "dur": 0.341,
      "vel": 100
    },
    {
      "t": 24.731,
      "note": 69,
      "dur": 0.011,
      "vel": 100
    },
    {
      "t": 24.743,
      "note": 38,
      "dur": 1.001,
      "vel": 100
    },
    {
      "t": 25.744,
      "note": 38,
      "dur": 1.019,
      "vel": 100
    },
    {
      "t": 26.764,
      "note": 38,
      "dur": 0.356,
      "vel": 100
    },
    {
      "t": 27.119,
      "note": 93,
      "dur": 0.002,
      "vel": 100
    },
    {
      "t": 27.121,
      "note": 38,
      "dur": 1.369,
      "vel": 100
    },
    {
      "t": 28.49,
      "note": 49,
      "dur": 0.99,
      "vel": 100
    },
    {
      "t": 29.481,
      "note": 49,
      "dur": 0.078,
      "vel": 100
    },
    {
      "t": 29.559,
      "note": 37,
      "dur": 0.338,
      "vel": 100
    },
    {
      "t": 29.897,
      "note": 93,
      "dur": 0.016,
      "vel": 100
    },
    {
      "t": 29.913,
      "note": 38,
      "dur": 1.288,
      "vel": 100
    },
    {
      "t": 31.202,
      "note": 93,
      "dur": 0.027,
      "vel": 100
    },
    {
      "t": 31.229,
      "note": 93,
      "dur": 2.821,
      "vel": 100
    },
    {
      "t": 34.05,
      "note": 62,
      "dur": 1.398,
      "vel": 100
    },
    {
      "t": 35.448,
      "note": 93,
      "dur": 0.03,
      "vel": 100
    },
    {
      "t": 35.478,
      "note": 35,
      "dur": 0.979,
      "vel": 100
    },
    {
      "t": 36.457,
      "note": 45,
      "dur": 0.347,
      "vel": 100
    },
    {
      "t": 36.804,
      "note": 93,
      "dur": 0.027,
      "vel": 100
    },
    {
      "t": 36.831,
      "note": 93,
      "dur": 0.289,
      "vel": 100
    },
    {
      "t": 37.12,
      "note": 74,
      "dur": 0.011,
      "vel": 100
    },
    {
      "t": 37.131,
      "note": 62,
      "dur": 0.024,
      "vel": 100
    },
    {
      "t": 37.154,
      "note": 46,
      "dur": 1.031,
      "vel": 100
    },
    {
      "t": 38.186,
      "note": 93,
      "dur": 0.016,
      "vel": 100
    },
    {
      "t": 38.202,
      "note": 93,
      "dur": 1.372,
      "vel": 100
    },
    {
      "t": 39.574,
      "note": 45,
      "dur": 0.722,
      "vel": 100
    },
    {
      "t": 40.296,
      "note": 74,
      "dur": 0.015,
      "vel": 100
    },
    {
      "t": 40.311,
      "note": 93,
      "dur": 0.018,
      "vel": 100
    },
    {
      "t": 40.329,
      "note": 45,
      "dur": 0.109,
      "vel": 100
    },
    {
      "t": 40.438,
      "note": 93,
      "dur": 0.018,
      "vel": 100
    },
    {
      "t": 40.456,
      "note": 45,
      "dur": 0.138,
      "vel": 100
    },
    {
      "t": 40.594,
      "note": 93,
      "dur": 0.018,
      "vel": 100
    },
    {
      "t": 40.612,
      "note": 45,
      "dur": 0.3,
      "vel": 100
    },
    {
      "t": 40.912,
      "note": 45,
      "dur": 0.046,
      "vel": 100
    },
    {
      "t": 40.957,
      "note": 93,
      "dur": 0.022,
      "vel": 100
    },
    {
      "t": 40.98,
      "note": 93,
      "dur": 0.014,
      "vel": 100
    },
    {
      "t": 40.993,
      "note": 33,
      "dur": 0.243,
      "vel": 100
    },
    {
      "t": 41.236,
      "note": 93,
      "dur": 0.063,
      "vel": 100
    },
    {
      "t": 41.299,
      "note": 74,
      "dur": 0.01,
      "vel": 100
    },
    {
      "t": 41.309,
      "note": 43,
      "dur": 0.3,
      "vel": 100
    },
    {
      "t": 41.609,
      "note": 93,
      "dur": 0.067,
      "vel": 100
    },
    {
      "t": 41.676,
      "note": 93,
      "dur": 0.019,
      "vel": 100
    },
    {
      "t": 41.695,
      "note": 93,
      "dur": 0.052,
      "vel": 100
    },
    {
      "t": 41.747,
      "note": 93,
      "dur": 0.062,
      "vel": 100
    },
    {
      "t": 41.809,
      "note": 93,
      "dur": 0.11,
      "vel": 100
    },
    {
      "t": 41.918,
      "note": 93,
      "dur": 0.055,
      "vel": 100
    },
    {
      "t": 41.973,
      "note": 93,
      "dur": 1.03,
      "vel": 100
    },
    {
      "t": 43.003,
      "note": 93,
      "dur": 4.715,
      "vel": 100
    },
    {
      "t": 47.717,
      "note": 54,
      "dur": 1.324,
      "vel": 100
    },
    {
      "t": 49.041,
      "note": 93,
      "dur": 0.025,
      "vel": 100
    },
    {
      "t": 49.066,
      "note": 50,
      "dur": 1.342,
      "vel": 100
    },
    {
      "t": 50.409,
      "note": 93,
      "dur": 0.027,
      "vel": 100
    },
    {
      "t": 50.436,
      "note": 93,
      "dur": 1.284,
      "vel": 100
    },
    {
      "t": 51.72,
      "note": 93,
      "dur": 0.992,
      "vel": 100
    },
    {
      "t": 52.712,
      "note": 93,
      "dur": 0.348,
      "vel": 100
    },
    {
      "t": 53.059,
      "note": 54,
      "dur": 0.035,
      "vel": 100
    },
    {
      "t": 53.094,
      "note": 47,
      "dur": 1.345,
      "vel": 100
    },
    {
      "t": 54.44,
      "note": 93,
      "dur": 2.063,
      "vel": 100
    },
    {
      "t": 56.502,
      "note": 47,
      "dur": 0.637,
      "vel": 100
    },
    {
      "t": 57.14,
      "note": 93,
      "dur": 0.013,
      "vel": 100
    },
    {
      "t": 57.152,
      "note": 93,
      "dur": 0.023,
      "vel": 100
    },
    {
      "t": 57.175,
      "note": 93,
      "dur": 0.115,
      "vel": 100
    },
    {
      "t": 57.29,
      "note": 93,
      "dur": 0.163,
      "vel": 100
    },
    {
      "t": 57.453,
      "note": 93,
      "dur": 0.342,
      "vel": 100
    },
    {
      "t": 57.795,
      "note": 49,
      "dur": 0.058,
      "vel": 100
    },
    {
      "t": 57.853,
      "note": 47,
      "dur": 0.098,
      "vel": 100
    },
    {
      "t": 57.951,
      "note": 49,
      "dur": 0.04,
      "vel": 100
    },
    {
      "t": 57.991,
      "note": 47,
      "dur": 0.098,
      "vel": 100
    },
    {
      "t": 58.089,
      "note": 93,
      "dur": 0.049,
      "vel": 100
    },
    {
      "t": 58.138,
      "note": 45,
      "dur": 0.324,
      "vel": 100
    },
    {
      "t": 58.461,
      "note": 93,
      "dur": 0.027,
      "vel": 100
    },
    {
      "t": 58.489,
      "note": 46,
      "dur": 0.67,
      "vel": 100
    },
    {
      "t": 59.158,
      "note": 47,
      "dur": 0.332,
      "vel": 100
    },
    {
      "t": 59.491,
      "note": 47,
      "dur": 0.26,
      "vel": 100
    },
    {
      "t": 59.75,
      "note": 93,
      "dur": 0.07,
      "vel": 100
    },
    {
      "t": 59.82,
      "note": 93,
      "dur": 0.635,
      "vel": 100
    },
    {
      "t": 60.454,
      "note": 93,
      "dur": 0.013,
      "vel": 100
    },
    {
      "t": 60.467,
      "note": 93,
      "dur": 0.052,
      "vel": 100
    },
    {
      "t": 60.519,
      "note": 93,
      "dur": 0.031,
      "vel": 100
    },
    {
      "t": 60.551,
      "note": 93,
      "dur": 0.171,
      "vel": 100
    },
    {
      "t": 60.721,
      "note": 93,
      "dur": 0.05,
      "vel": 100
    },
    {
      "t": 60.771,
      "note": 93,
      "dur": 0.356,
      "vel": 100
    },
    {
      "t": 61.128,
      "note": 93,
      "dur": 0.016,
      "vel": 100
    },
    {
      "t": 61.144,
      "note": 93,
      "dur": 0.311,
      "vel": 100
    },
    {
      "t": 61.455,
      "note": 33,
      "dur": 0.341,
      "vel": 100
    },
    {
      "t": 61.796,
      "note": 45,
      "dur": 0.136,
      "vel": 100
    },
    {
      "t": 61.932,
      "note": 45,
      "dur": 0.515,
      "vel": 100
    },
    {
      "t": 62.447,
      "note": 93,
      "dur": 0.982,
      "vel": 100
    },
    {
      "t": 63.428,
      "note": 93,
      "dur": 0.013,
      "vel": 100
    },
    {
      "t": 63.442,
      "note": 45,
      "dur": 0.337,
      "vel": 100
    },
    {
      "t": 63.779,
      "note": 93,
      "dur": 0.009,
      "vel": 100
    },
    {
      "t": 63.788,
      "note": 33,
      "dur": 0.968,
      "vel": 100
    },
    {
      "t": 64.756,
      "note": 93,
      "dur": 0.058,
      "vel": 100
    },
    {
      "t": 64.814,
      "note": 45,
      "dur": 0.334,
      "vel": 100
    },
    {
      "t": 65.148,
      "note": 93,
      "dur": 0.018,
      "vel": 100
    },
    {
      "t": 65.166,
      "note": 33,
      "dur": 0.299,
      "vel": 100
    },
    {
      "t": 65.465,
      "note": 93,
      "dur": 0.019,
      "vel": 100
    },
    {
      "t": 65.484,
      "note": 33,
      "dur": 0.34,
      "vel": 100
    },
    {
      "t": 65.824,
      "note": 93,
      "dur": 0.036,
      "vel": 100
    },
    {
      "t": 65.86,
      "note": 93,
      "dur": 0.056,
      "vel": 100
    },
    {
      "t": 65.915,
      "note": 93,
      "dur": 0.054,
      "vel": 100
    },
    {
      "t": 65.97,
      "note": 93,
      "dur": 0.132,
      "vel": 100
    },
    {
      "t": 66.101,
      "note": 93,
      "dur": 0.707,
      "vel": 100
    },
    {
      "t": 66.808,
      "note": 67,
      "dur": 0.386,
      "vel": 100
    },
    {
      "t": 67.195,
      "note": 93,
      "dur": 0.021,
      "vel": 100
    },
    {
      "t": 67.215,
      "note": 93,
      "dur": 2.736,
      "vel": 100
    },
    {
      "t": 69.951,
      "note": 93,
      "dur": 0.023,
      "vel": 100
    },
    {
      "t": 69.974,
      "note": 47,
      "dur": 0.682,
      "vel": 100
    },
    {
      "t": 70.656,
      "note": 93,
      "dur": 0.016,
      "vel": 100
    },
    {
      "t": 70.672,
      "note": 55,
      "dur": 0.175,
      "vel": 100
    },
    {
      "t": 70.847,
      "note": 55,
      "dur": 0.02,
      "vel": 100
    },
    {
      "t": 70.867,
      "note": 55,
      "dur": 0.083,
      "vel": 100
    },
    {
      "t": 70.951,
      "note": 43,
      "dur": 0.356,
      "vel": 100
    },
    {
      "t": 71.306,
      "note": 43,
      "dur": 0.068,
      "vel": 100
    },
    {
      "t": 71.375,
      "note": 93,
      "dur": 0.01,
      "vel": 100
    },
    {
      "t": 71.385,
      "note": 93,
      "dur": 0.023,
      "vel": 100
    },
    {
      "t": 71.408,
      "note": 43,
      "dur": 0.311,
      "vel": 100
    },
    {
      "t": 71.719,
      "note": 49,
      "dur": 1.105,
      "vel": 100
    },
    {
      "t": 72.824,
      "note": 93,
      "dur": 0.29,
      "vel": 100
    },
    {
      "t": 73.115,
      "note": 93,
      "dur": 0.06,
      "vel": 100
    },
    {
      "t": 73.174,
      "note": 93,
      "dur": 1.034,
      "vel": 100
    },
    {
      "t": 74.208,
      "note": 93,
      "dur": 0.018,
      "vel": 100
    },
    {
      "t": 74.227,
      "note": 93,
      "dur": 0.096,
      "vel": 100
    },
    {
      "t": 74.323,
      "note": 93,
      "dur": 0.036,
      "vel": 100
    },
    {
      "t": 74.359,
      "note": 93,
      "dur": 0.13,
      "vel": 100
    },
    {
      "t": 74.489,
      "note": 93,
      "dur": 1.118,
      "vel": 100
    },
    {
      "t": 75.608,
      "note": 93,
      "dur": 0.018,
      "vel": 100
    },
    {
      "t": 75.626,
      "note": 93,
      "dur": 0.109,
      "vel": 100
    },
    {
      "t": 75.735,
      "note": 93,
      "dur": 0.073,
      "vel": 100
    },
    {
      "t": 75.807,
      "note": 93,
      "dur": 2.09,
      "vel": 100
    },
    {
      "t": 77.898,
      "note": 62,
      "dur": 0.962,
      "vel": 100
    },
    {
      "t": 78.86,
      "note": 62,
      "dur": 0.02,
      "vel": 100
    },
    {
      "t": 78.88,
      "note": 38,
      "dur": 0.736,
      "vel": 100
    },
    {
      "t": 79.616,
      "note": 54,
      "dur": 0.322,
      "vel": 100
    },
    {
      "t": 79.938,
      "note": 69,
      "dur": 0.014,
      "vel": 100
    },
    {
      "t": 79.951,
      "note": 57,
      "dur": 0.027,
      "vel": 100
    },
    {
      "t": 79.979,
      "note": 38,
      "dur": 1.015,
      "vel": 100
    },
    {
      "t": 80.994,
      "note": 38,
      "dur": 2.797,
      "vel": 100
    },
    {
      "t": 83.791,
      "note": 61,
      "dur": 1.589,
      "vel": 100
    },
    {
      "t": 85.38,
      "note": 93,
      "dur": 0.003,
      "vel": 100
    },
    {
      "t": 85.383,
      "note": 93,
      "dur": 1.341,
      "vel": 100
    },
    {
      "t": 86.724,
      "note": 93,
      "dur": 2.76,
      "vel": 100
    },
    {
      "t": 89.484,
      "note": 62,
      "dur": 1.582,
      "vel": 100
    },
    {
      "t": 91.065,
      "note": 93,
      "dur": 0.032,
      "vel": 100
    },
    {
      "t": 91.098,
      "note": 35,
      "dur": 1.3,
      "vel": 100
    },
    {
      "t": 92.398,
      "note": 93,
      "dur": 2.714,
      "vel": 100
    },
    {
      "t": 95.113,
      "note": 62,
      "dur": 0.875,
      "vel": 100
    },
    {
      "t": 95.988,
      "note": 61,
      "dur": 0.014,
      "vel": 100
    },
    {
      "t": 96.002,
      "note": 93,
      "dur": 0.023,
      "vel": 100
    },
    {
      "t": 96.025,
      "note": 93,
      "dur": 0.018,
      "vel": 100
    },
    {
      "t": 96.043,
      "note": 33,
      "dur": 0.086,
      "vel": 100
    },
    {
      "t": 96.129,
      "note": 93,
      "dur": 0.034,
      "vel": 100
    },
    {
      "t": 96.163,
      "note": 45,
      "dur": 0.127,
      "vel": 100
    },
    {
      "t": 96.29,
      "note": 93,
      "dur": 0.014,
      "vel": 100
    },
    {
      "t": 96.303,
      "note": 45,
      "dur": 0.264,
      "vel": 100
    },
    {
      "t": 96.567,
      "note": 45,
      "dur": 0.064,
      "vel": 100
    },
    {
      "t": 96.631,
      "note": 93,
      "dur": 0.289,
      "vel": 100
    },
    {
      "t": 96.92,
      "note": 93,
      "dur": 0.045,
      "vel": 100
    },
    {
      "t": 96.965,
      "note": 93,
      "dur": 0.313,
      "vel": 100
    },
    {
      "t": 97.278,
      "note": 93,
      "dur": 0.055,
      "vel": 100
    },
    {
      "t": 97.332,
      "note": 93,
      "dur": 3.362,
      "vel": 100
    },
    {
      "t": 100.694,
      "note": 61,
      "dur": 0.804,
      "vel": 100
    },
    {
      "t": 101.498,
      "note": 38,
      "dur": 0.665,
      "vel": 100
    },
    {
      "t": 102.163,
      "note": 93,
      "dur": 0.052,
      "vel": 100
    },
    {
      "t": 102.215,
      "note": 54,
      "dur": 0.341,
      "vel": 100
    },
    {
      "t": 102.556,
      "note": 69,
      "dur": 0.011,
      "vel": 100
    },
    {
      "t": 102.568,
      "note": 38,
      "dur": 1.001,
      "vel": 100
    },
    {
      "t": 103.569,
      "note": 38,
      "dur": 1.019,
      "vel": 100
    },
    {
      "t": 104.589,
      "note": 38,
      "dur": 0.358,
      "vel": 100
    },
    {
      "t": 104.946,
      "note": 38,
      "dur": 1.369,
      "vel": 100
    },
    {
      "t": 106.316,
      "note": 49,
      "dur": 0.99,
      "vel": 100
    },
    {
      "t": 107.306,
      "note": 49,
      "dur": 0.066,
      "vel": 100
    },
    {
      "t": 107.372,
      "note": 93,
      "dur": 0.012,
      "vel": 100
    },
    {
      "t": 107.384,
      "note": 37,
      "dur": 0.324,
      "vel": 100
    },
    {
      "t": 107.707,
      "note": 93,
      "dur": 0.031,
      "vel": 100
    },
    {
      "t": 107.738,
      "note": 38,
      "dur": 1.288,
      "vel": 100
    },
    {
      "t": 109.026,
      "note": 93,
      "dur": 0.027,
      "vel": 100
    },
    {
      "t": 109.054,
      "note": 93,
      "dur": 2.821,
      "vel": 100
    },
    {
      "t": 111.875,
      "note": 62,
      "dur": 1.423,
      "vel": 100
    },
    {
      "t": 113.298,
      "note": 93,
      "dur": 0.005,
      "vel": 100
    },
    {
      "t": 113.303,
      "note": 35,
      "dur": 0.979,
      "vel": 100
    },
    {
      "t": 114.282,
      "note": 45,
      "dur": 0.055,
      "vel": 100
    },
    {
      "t": 114.337,
      "note": 45,
      "dur": 0.292,
      "vel": 100
    },
    {
      "t": 114.629,
      "note": 93,
      "dur": 0.027,
      "vel": 100
    },
    {
      "t": 114.656,
      "note": 93,
      "dur": 0.299,
      "vel": 100
    },
    {
      "t": 114.956,
      "note": 62,
      "dur": 0.024,
      "vel": 100
    },
    {
      "t": 114.979,
      "note": 47,
      "dur": 1.029,
      "vel": 100
    },
    {
      "t": 116.009,
      "note": 93,
      "dur": 0.016,
      "vel": 100
    },
    {
      "t": 116.025,
      "note": 93,
      "dur": 1.372,
      "vel": 100
    },
    {
      "t": 117.397,
      "note": 45,
      "dur": 0.722,
      "vel": 100
    },
    {
      "t": 118.119,
      "note": 74,
      "dur": 0.015,
      "vel": 100
    },
    {
      "t": 118.134,
      "note": 93,
      "dur": 0.018,
      "vel": 100
    },
    {
      "t": 118.152,
      "note": 45,
      "dur": 0.091,
      "vel": 100
    },
    {
      "t": 118.243,
      "note": 93,
      "dur": 0.036,
      "vel": 100
    },
    {
      "t": 118.279,
      "note": 45,
      "dur": 0.156,
      "vel": 100
    },
    {
      "t": 118.435,
      "note": 45,
      "dur": 0.318,
      "vel": 100
    },
    {
      "t": 118.753,
      "note": 45,
      "dur": 0.046,
      "vel": 100
    },
    {
      "t": 118.799,
      "note": 93,
      "dur": 0.018,
      "vel": 100
    },
    {
      "t": 118.817,
      "note": 82,
      "dur": 0.299,
      "vel": 100
    },
    {
      "t": 119.116,
      "note": 93,
      "dur": 0.016,
      "vel": 100
    },
    {
      "t": 119.132,
      "note": 43,
      "dur": 0.3,
      "vel": 100
    },
    {
      "t": 119.432,
      "note": 93,
      "dur": 0.067,
      "vel": 100
    },
    {
      "t": 119.499,
      "note": 93,
      "dur": 0.019,
      "vel": 100
    },
    {
      "t": 119.518,
      "note": 93,
      "dur": 0.052,
      "vel": 100
    },
    {
      "t": 119.57,
      "note": 93,
      "dur": 0.062,
      "vel": 100
    },
    {
      "t": 119.632,
      "note": 93,
      "dur": 0.11,
      "vel": 100
    },
    {
      "t": 119.741,
      "note": 93,
      "dur": 0.055,
      "vel": 100
    },
    {
      "t": 119.796,
      "note": 93,
      "dur": 1.03,
      "vel": 100
    },
    {
      "t": 120.826,
      "note": 93,
      "dur": 4.715,
      "vel": 100
    },
    {
      "t": 125.54,
      "note": 54,
      "dur": 1.324,
      "vel": 100
    },
    {
      "t": 126.864,
      "note": 93,
      "dur": 0.025,
      "vel": 100
    },
    {
      "t": 126.889,
      "note": 52,
      "dur": 0.985,
      "vel": 100
    },
    {
      "t": 127.874,
      "note": 38,
      "dur": 0.358,
      "vel": 100
    },
    {
      "t": 128.232,
      "note": 93,
      "dur": 0.027,
      "vel": 100
    },
    {
      "t": 128.259,
      "note": 93,
      "dur": 1.284,
      "vel": 100
    },
    {
      "t": 129.543,
      "note": 93,
      "dur": 0.035,
      "vel": 100
    },
    {
      "t": 129.578,
      "note": 93,
      "dur": 0.957,
      "vel": 100
    },
    {
      "t": 130.535,
      "note": 93,
      "dur": 0.348,
      "vel": 100
    },
    {
      "t": 130.882,
      "note": 54,
      "dur": 0.035,
      "vel": 100
    },
    {
      "t": 130.918,
      "note": 47,
      "dur": 1.342,
      "vel": 100
    },
    {
      "t": 132.26,
      "note": 93,
      "dur": 0.003,
      "vel": 100
    },
    {
      "t": 132.263,
      "note": 93,
      "dur": 2.266,
      "vel": 100
    },
    {
      "t": 134.529,
      "note": 93,
      "dur": 0.041,
      "vel": 100
    },
    {
      "t": 134.569,
      "note": 47,
      "dur": 0.386,
      "vel": 100
    },
    {
      "t": 134.955,
      "note": 93,
      "dur": 0.02,
      "vel": 100
    },
    {
      "t": 134.976,
      "note": 93,
      "dur": 0.023,
      "vel": 100
    },
    {
      "t": 134.998,
      "note": 93,
      "dur": 0.278,
      "vel": 100
    },
    {
      "t": 135.276,
      "note": 93,
      "dur": 0.342,
      "vel": 100
    },
    {
      "t": 135.618,
      "note": 47,
      "dur": 0.294,
      "vel": 100
    },
    {
      "t": 135.912,
      "note": 93,
      "dur": 0.04,
      "vel": 100
    },
    {
      "t": 135.952,
      "note": 93,
      "dur": 0.009,
      "vel": 100
    },
    {
      "t": 135.961,
      "note": 45,
      "dur": 0.324,
      "vel": 100
    },
    {
      "t": 136.284,
      "note": 93,
      "dur": 0.027,
      "vel": 100
    },
    {
      "t": 136.312,
      "note": 93,
      "dur": 0.298,
      "vel": 100
    },
    {
      "t": 136.609,
      "note": 45,
      "dur": 0.356,
      "vel": 100
    },
    {
      "t": 136.965,
      "note": 93,
      "dur": 0.016,
      "vel": 100
    },
    {
      "t": 136.982,
      "note": 93,
      "dur": 0.037,
      "vel": 100
    },
    {
      "t": 137.019,
      "note": 47,
      "dur": 0.049,
      "vel": 100
    },
    {
      "t": 137.068,
      "note": 47,
      "dur": 0.057,
      "vel": 100
    },
    {
      "t": 137.124,
      "note": 47,
      "dur": 0.498,
      "vel": 100
    },
    {
      "t": 137.623,
      "note": 93,
      "dur": 0.023,
      "vel": 100
    },
    {
      "t": 137.646,
      "note": 93,
      "dur": 0.644,
      "vel": 100
    },
    {
      "t": 138.29,
      "note": 93,
      "dur": 0.052,
      "vel": 100
    },
    {
      "t": 138.343,
      "note": 93,
      "dur": 0.178,
      "vel": 100
    },
    {
      "t": 138.52,
      "note": 93,
      "dur": 0.074,
      "vel": 100
    },
    {
      "t": 138.594,
      "note": 93,
      "dur": 0.356,
      "vel": 100
    },
    {
      "t": 138.951,
      "note": 93,
      "dur": 0.016,
      "vel": 100
    },
    {
      "t": 138.967,
      "note": 93,
      "dur": 0.033,
      "vel": 100
    },
    {
      "t": 139.0,
      "note": 93,
      "dur": 0.279,
      "vel": 100
    },
    {
      "t": 139.278,
      "note": 33,
      "dur": 0.341,
      "vel": 100
    },
    {
      "t": 139.619,
      "note": 45,
      "dur": 0.136,
      "vel": 100
    },
    {
      "t": 139.755,
      "note": 45,
      "dur": 0.265,
      "vel": 100
    },
    {
      "t": 140.02,
      "note": 45,
      "dur": 0.25,
      "vel": 100
    },
    {
      "t": 140.27,
      "note": 93,
      "dur": 0.014,
      "vel": 100
    },
    {
      "t": 140.284,
      "note": 93,
      "dur": 0.968,
      "vel": 100
    },
    {
      "t": 141.252,
      "note": 93,
      "dur": 0.013,
      "vel": 100
    },
    {
      "t": 141.265,
      "note": 45,
      "dur": 0.328,
      "vel": 100
    },
    {
      "t": 141.593,
      "note": 93,
      "dur": 0.018,
      "vel": 100
    },
    {
      "t": 141.611,
      "note": 33,
      "dur": 0.968,
      "vel": 100
    },
    {
      "t": 142.579,
      "note": 93,
      "dur": 0.058,
      "vel": 100
    },
    {
      "t": 142.637,
      "note": 45,
      "dur": 0.334,
      "vel": 100
    },
    {
      "t": 142.971,
      "note": 93,
      "dur": 0.018,
      "vel": 100
    },
    {
      "t": 142.99,
      "note": 33,
      "dur": 0.299,
      "vel": 100
    },
    {
      "t": 143.288,
      "note": 93,
      "dur": 0.019,
      "vel": 100
    },
    {
      "t": 143.307,
      "note": 33,
      "dur": 0.34,
      "vel": 100
    },
    {
      "t": 143.647,
      "note": 93,
      "dur": 0.018,
      "vel": 100
    },
    {
      "t": 143.665,
      "note": 93,
      "dur": 0.019,
      "vel": 100
    },
    {
      "t": 143.684,
      "note": 93,
      "dur": 0.109,
      "vel": 100
    },
    {
      "t": 143.793,
      "note": 93,
      "dur": 0.132,
      "vel": 100
    },
    {
      "t": 143.924,
      "note": 93,
      "dur": 0.474,
      "vel": 100
    },
    {
      "t": 144.398,
      "note": 93,
      "dur": 0.234,
      "vel": 100
    },
    {
      "t": 144.632,
      "note": 67,
      "dur": 0.386,
      "vel": 100
    },
    {
      "t": 145.018,
      "note": 93,
      "dur": 0.021,
      "vel": 100
    },
    {
      "t": 145.038,
      "note": 93,
      "dur": 2.736,
      "vel": 100
    },
    {
      "t": 147.774,
      "note": 93,
      "dur": 0.023,
      "vel": 100
    },
    {
      "t": 147.798,
      "note": 47,
      "dur": 0.682,
      "vel": 100
    },
    {
      "t": 148.48,
      "note": 93,
      "dur": 0.016,
      "vel": 100
    },
    {
      "t": 148.495,
      "note": 55,
      "dur": 0.175,
      "vel": 100
    },
    {
      "t": 148.67,
      "note": 55,
      "dur": 0.021,
      "vel": 100
    },
    {
      "t": 148.69,
      "note": 55,
      "dur": 0.14,
      "vel": 100
    },
    {
      "t": 148.83,
      "note": 43,
      "dur": 0.3,
      "vel": 100
    },
    {
      "t": 149.13,
      "note": 43,
      "dur": 0.068,
      "vel": 100
    },
    {
      "t": 149.198,
      "note": 93,
      "dur": 0.01,
      "vel": 100
    },
    {
      "t": 149.208,
      "note": 93,
      "dur": 0.023,
      "vel": 100
    },
    {
      "t": 149.231,
      "note": 43,
      "dur": 0.309,
      "vel": 100
    },
    {
      "t": 149.54,
      "note": 93,
      "dur": 0.003,
      "vel": 100
    },
    {
      "t": 149.542,
      "note": 59,
      "dur": 1.105,
      "vel": 100
    },
    {
      "t": 150.648,
      "note": 93,
      "dur": 0.29,
      "vel": 100
    },
    {
      "t": 150.938,
      "note": 93,
      "dur": 0.06,
      "vel": 100
    },
    {
      "t": 150.998,
      "note": 93,
      "dur": 1.034,
      "vel": 100
    },
    {
      "t": 152.031,
      "note": 93,
      "dur": 0.018,
      "vel": 100
    },
    {
      "t": 152.05,
      "note": 93,
      "dur": 0.114,
      "vel": 100
    },
    {
      "t": 152.164,
      "note": 93,
      "dur": 0.149,
      "vel": 100
    },
    {
      "t": 152.313,
      "note": 93,
      "dur": 1.118,
      "vel": 100
    },
    {
      "t": 153.431,
      "note": 93,
      "dur": 0.018,
      "vel": 100
    },
    {
      "t": 153.449,
      "note": 93,
      "dur": 0.109,
      "vel": 100
    },
    {
      "t": 153.558,
      "note": 93,
      "dur": 3.416,
      "vel": 100
    },
    {
      "t": 156.974,
      "note": 93,
      "dur": 0.011,
      "vel": 100
    },
    {
      "t": 156.984,
      "note": 54,
      "dur": 0.288,
      "vel": 100
    },
    {
      "t": 157.272,
      "note": 74,
      "dur": 0.01,
      "vel": 100
    },
    {
      "t": 157.282,
      "note": 38,
      "dur": 0.684,
      "vel": 100
    },
    {
      "t": 157.966,
      "note": 38,
      "dur": 0.35,
      "vel": 100
    },
    {
      "t": 158.317,
      "note": 93,
      "dur": 0.005,
      "vel": 100
    },
    {
      "t": 158.322,
      "note": 45,
      "dur": 0.977,
      "vel": 100
    },
    {
      "t": 159.299,
      "note": 93,
      "dur": 0.003,
      "vel": 100
    },
    {
      "t": 159.302,
      "note": 45,
      "dur": 0.337,
      "vel": 100
    },
    {
      "t": 159.639,
      "note": 54,
      "dur": 0.359,
      "vel": 100
    },
    {
      "t": 159.998,
      "note": 38,
      "dur": 1.018,
      "vel": 100
    },
    {
      "t": 161.016,
      "note": 42,
      "dur": 0.649,
      "vel": 100
    },
    {
      "t": 161.665,
      "note": 82,
      "dur": 0.673,
      "vel": 100
    },
    {
      "t": 162.338,
      "note": 93,
      "dur": 0.008,
      "vel": 100
    },
    {
      "t": 162.346,
      "note": 43,
      "dur": 1.353,
      "vel": 100
    },
    {
      "t": 163.699,
      "note": 42,
      "dur": 1.338,
      "vel": 100
    },
    {
      "t": 165.036,
      "note": 42,
      "dur": 0.623,
      "vel": 100
    },
    {
      "t": 165.66,
      "note": 93,
      "dur": 0.011,
      "vel": 100
    },
    {
      "t": 165.67,
      "note": 42,
      "dur": 0.308,
      "vel": 100
    },
    {
      "t": 165.979,
      "note": 93,
      "dur": 0.015,
      "vel": 100
    },
    {
      "t": 165.994,
      "note": 45,
      "dur": 0.351,
      "vel": 100
    },
    {
      "t": 166.345,
      "note": 83,
      "dur": 0.311,
      "vel": 100
    },
    {
      "t": 166.656,
      "note": 61,
      "dur": 0.331,
      "vel": 100
    },
    {
      "t": 166.987,
      "note": 42,
      "dur": 0.311,
      "vel": 100
    },
    {
      "t": 167.299,
      "note": 93,
      "dur": 0.003,
      "vel": 100
    },
    {
      "t": 167.301,
      "note": 45,
      "dur": 0.374,
      "vel": 100
    },
    {
      "t": 167.676,
      "note": 54,
      "dur": 0.303,
      "vel": 100
    },
    {
      "t": 167.979,
      "note": 75,
      "dur": 0.007,
      "vel": 100
    },
    {
      "t": 167.986,
      "note": 43,
      "dur": 0.33,
      "vel": 100
    },
    {
      "t": 168.316,
      "note": 55,
      "dur": 0.017,
      "vel": 100
    },
    {
      "t": 168.333,
      "note": 43,
      "dur": 0.251,
      "vel": 100
    },
    {
      "t": 168.584,
      "note": 43,
      "dur": 0.052,
      "vel": 100
    },
    {
      "t": 168.636,
      "note": 45,
      "dur": 0.361,
      "vel": 100
    },
    {
      "t": 168.996,
      "note": 45,
      "dur": 0.641,
      "vel": 100
    },
    {
      "t": 169.637,
      "note": 93,
      "dur": 0.021,
      "vel": 100
    },
    {
      "t": 169.658,
      "note": 93,
      "dur": 0.314,
      "vel": 100
    },
    {
      "t": 169.973,
      "note": 45,
      "dur": 0.312,
      "vel": 100
    },
    {
      "t": 170.285,
      "note": 54,
      "dur": 0.03,
      "vel": 100
    },
    {
      "t": 170.315,
      "note": 55,
      "dur": 1.336,
      "vel": 100
    },
    {
      "t": 171.65,
      "note": 61,
      "dur": 0.647,
      "vel": 100
    },
    {
      "t": 172.298,
      "note": 93,
      "dur": 0.006,
      "vel": 100
    },
    {
      "t": 172.304,
      "note": 93,
      "dur": 0.124,
      "vel": 100
    },
    {
      "t": 172.428,
      "note": 93,
      "dur": 0.018,
      "vel": 100
    },
    {
      "t": 172.446,
      "note": 45,
      "dur": 0.127,
      "vel": 100
    },
    {
      "t": 172.573,
      "note": 93,
      "dur": 0.024,
      "vel": 100
    },
    {
      "t": 172.597,
      "note": 45,
      "dur": 0.085,
      "vel": 100
    },
    {
      "t": 172.682,
      "note": 45,
      "dur": 0.252,
      "vel": 100
    },
    {
      "t": 172.934,
      "note": 93,
      "dur": 0.018,
      "vel": 100
    },
    {
      "t": 172.952,
      "note": 93,
      "dur": 4.491,
      "vel": 100
    },
    {
      "t": 177.443,
      "note": 62,
      "dur": 1.682,
      "vel": 100
    },
    {
      "t": 179.125,
      "note": 93,
      "dur": 0.016,
      "vel": 100
    },
    {
      "t": 179.142,
      "note": 54,
      "dur": 0.318,
      "vel": 100
    },
    {
      "t": 179.46,
      "note": 69,
      "dur": 0.012,
      "vel": 100
    },
    {
      "t": 179.472,
      "note": 38,
      "dur": 1.064,
      "vel": 100
    },
    {
      "t": 180.536,
      "note": 93,
      "dur": 0.011,
      "vel": 100
    },
    {
      "t": 180.547,
      "note": 43,
      "dur": 2.743,
      "vel": 100
    },
    {
      "t": 183.29,
      "note": 61,
      "dur": 1.648,
      "vel": 100
    },
    {
      "t": 184.938,
      "note": 93,
      "dur": 0.01,
      "vel": 100
    },
    {
      "t": 184.948,
      "note": 93,
      "dur": 1.368,
      "vel": 100
    },
    {
      "t": 186.316,
      "note": 93,
      "dur": 0.005,
      "vel": 100
    },
    {
      "t": 186.321,
      "note": 54,
      "dur": 2.784,
      "vel": 100
    },
    {
      "t": 189.106,
      "note": 62,
      "dur": 0.805,
      "vel": 100
    },
    {
      "t": 189.911,
      "note": 93,
      "dur": 0.017,
      "vel": 100
    },
    {
      "t": 189.928,
      "note": 47,
      "dur": 0.266,
      "vel": 100
    },
    {
      "t": 190.195,
      "note": 93,
      "dur": 0.065,
      "vel": 100
    },
    {
      "t": 190.26,
      "note": 93,
      "dur": 0.372,
      "vel": 100
    },
    {
      "t": 190.632,
      "note": 93,
      "dur": 0.016,
      "vel": 100
    },
    {
      "t": 190.647,
      "note": 93,
      "dur": 0.329,
      "vel": 100
    },
    {
      "t": 190.976,
      "note": 45,
      "dur": 0.362,
      "vel": 100
    },
    {
      "t": 191.338,
      "note": 47,
      "dur": 0.274,
      "vel": 100
    },
    {
      "t": 191.613,
      "note": 93,
      "dur": 0.053,
      "vel": 100
    },
    {
      "t": 191.666,
      "note": 93,
      "dur": 0.364,
      "vel": 100
    },
    {
      "t": 192.03,
      "note": 93,
      "dur": 0.016,
      "vel": 100
    },
    {
      "t": 192.046,
      "note": 83,
      "dur": 0.294,
      "vel": 100
    },
    {
      "t": 192.34,
      "note": 93,
      "dur": 0.019,
      "vel": 100
    },
    {
      "t": 192.359,
      "note": 38,
      "dur": 0.348,
      "vel": 100
    },
    {
      "t": 192.707,
      "note": 93,
      "dur": 0.705,
      "vel": 100
    },
    {
      "t": 193.412,
      "note": 93,
      "dur": 0.013,
      "vel": 100
    },
    {
      "t": 193.425,
      "note": 93,
      "dur": 1.389,
      "vel": 100
    },
    {
      "t": 194.814,
      "note": 62,
      "dur": 0.853,
      "vel": 100
    },
    {
      "t": 195.667,
      "note": 33,
      "dur": 0.142,
      "vel": 100
    },
    {
      "t": 195.809,
      "note": 45,
      "dur": 0.168,
      "vel": 100
    },
    {
      "t": 195.977,
      "note": 93,
      "dur": 6.69,
      "vel": 100
    },
    {
      "t": 202.667,
      "note": 54,
      "dur": 0.192,
      "vel": 100
    },
    {
      "t": 202.859,
      "note": 93,
      "dur": 0.323,
      "vel": 100
    },
    {
      "t": 203.182,
      "note": 50,
      "dur": 9.536,
      "vel": 100
    }
  ]
}