<svg width="512" height="512" viewBox="0 0 512 512" xmlns="http://www.w3.org/2000/svg">
  <rect width="512" height="512" fill="#1a1a2e" rx="64"/>
  <rect x="64" y="200" width="384" height="112" fill="#16213e" stroke="#0f3460" stroke-width="4" rx="8"/>
  <rect x="64" y="200" width="54" height="112" fill="#ffffff" rx="4"/>
  <rect x="118" y="200" width="54" height="112" fill="#ffffff" rx="4"/>
  <rect x="172" y="200" width="54" height="112" fill="#ffffff" rx="4"/>
  <rect x="226" y="200" width="54" height="112" fill="#ffffff" rx="4"/>
  <rect x="280" y="200" width="54" height="112" fill="#ffffff" rx="4"/>
  <rect x="334" y="200" width="54" height="112" fill="#ffffff" rx="4"/>
  <rect x="388" y="200" width="60" height="112" fill="#ffffff" rx="4"/>
  <rect x="91" y="200" width="27" height="70" fill="#000000" rx="4"/>
  <rect x="145" y="200" width="27" height="70" fill="#000000" rx="4"/>
  <rect x="253" y="200" width="27" height="70" fill="#000000" rx="4"/>
  <rect x="307" y="200" width="27" height="70" fill="#000000" rx="4"/>
  <rect x="361" y="200" width="27" height="70" fill="#000000" rx="4"/>
  <circle cx="256" cy="120" r="24" fill="#4a9eff"/>
</svg>
